<?xml version="1.0" encoding="utf-8"?>
<!-- Generator: Adobe Illustrator 16.0.0, SVG Export Plug-In . SVG Version: 6.00 Build 0)  -->
<!DOCTYPE svg PUBLIC "-//W3C//DTD SVG 1.1//EN" "http://www.w3.org/Graphics/SVG/1.1/DTD/svg11.dtd">
<svg version="1.1" xmlns="http://www.w3.org/2000/svg" xmlns:xlink="http://www.w3.org/1999/xlink" x="0px" y="0px" width="32px"
	 height="32px" viewBox="0 0 32 32" enable-background="new 0 0 32 32" xml:space="preserve">
<g id="Layer_1">
</g>
<g id="Layer_2">
	<g>
		<path fill="#F6F6F6" d="M28.5,17c0,0.55-0.45,1-1,1h-23c-0.55,0-1-0.45-1-1v-2c0-0.55,0.45-1,1-1h23c0.55,0,1,0.45,1,1V17z"/>
	</g>
	<g>
		<path fill="#F6F6F6" d="M17,3.5c0.55,0,1,0.45,1,1v23c0,0.55-0.45,1-1,1h-2c-0.55,0-1-0.45-1-1v-23c0-0.55,0.45-1,1-1H17z"/>
	</g>
</g>
</svg>
