<?xml version="1.0" encoding="utf-8"?>
<!-- Generator: Adobe Illustrator 16.0.0, SVG Export Plug-In . SVG Version: 6.00 Build 0)  -->
<!DOCTYPE svg PUBLIC "-//W3C//DTD SVG 1.1//EN" "http://www.w3.org/Graphics/SVG/1.1/DTD/svg11.dtd">
<svg version="1.1" xmlns="http://www.w3.org/2000/svg" xmlns:xlink="http://www.w3.org/1999/xlink" x="0px" y="0px" width="32px"
	 height="32px" viewBox="0 0 32 32" enable-background="new 0 0 32 32" xml:space="preserve">
<g id="Layer_1">
</g>
<g id="Layer_2">
	<g>
		<path fill="#F6F6F6" d="M14,23.594c0,1.104-0.896,2-2,2s-2-0.896-2-2c0-1.105,0.896-2,2-2S14,22.488,14,23.594"/>
		<path fill="#F6F6F6" d="M25,23.594c0,1.104-0.896,2-2,2s-2-0.896-2-2c0-1.105,0.896-2,2-2S25,22.488,25,23.594"/>
		<path fill="#F6F6F6" d="M7.516,9.493L5.5,6.406h-2C2.672,6.406,2,7.098,2,7.949c0,0.853,0.672,1.544,1.5,1.544h0.885L9.5,19.781
			h17.133L30,9.493H7.516z M15.002,11.036c0.413,0,0.749,0.334,0.749,0.749c0,0.411-0.336,0.749-0.749,0.749
			s-0.749-0.338-0.749-0.749C14.253,11.37,14.589,11.036,15.002,11.036z M8.261,11.785c0-0.415,0.333-0.749,0.749-0.749
			c0.413,0,0.748,0.334,0.748,0.749c0,0.411-0.335,0.749-0.748,0.749C8.594,12.534,8.261,12.196,8.261,11.785z M10.173,15.53
			c-0.411,0-0.748-0.337-0.748-0.749c0-0.415,0.337-0.749,0.748-0.749c0.416,0,0.75,0.334,0.75,0.749
			C10.923,15.193,10.589,15.53,10.173,15.53z M11.505,18.526c-0.412,0-0.748-0.337-0.748-0.748c0-0.415,0.336-0.749,0.748-0.749
			c0.414,0,0.75,0.334,0.75,0.749C12.255,18.189,11.919,18.526,11.505,18.526z M12.005,12.534c-0.412,0-0.748-0.338-0.748-0.749
			c0-0.415,0.336-0.749,0.748-0.749c0.414,0,0.75,0.334,0.75,0.749C12.755,12.196,12.419,12.534,12.005,12.534z M13.286,15.53
			c-0.413,0-0.749-0.337-0.749-0.749c0-0.415,0.336-0.749,0.749-0.749c0.414,0,0.75,0.334,0.75,0.749
			C14.036,15.193,13.7,15.53,13.286,15.53z M14.856,18.526c-0.414,0-0.75-0.337-0.75-0.748c0-0.415,0.336-0.749,0.75-0.749
			c0.412,0,0.748,0.334,0.748,0.749C15.604,18.189,15.269,18.526,14.856,18.526z M16.399,15.53c-0.412,0-0.748-0.337-0.748-0.749
			c0-0.415,0.336-0.749,0.748-0.749c0.414,0,0.749,0.334,0.749,0.749C17.148,15.193,16.813,15.53,16.399,15.53z M17.997,11.036
			c0.414,0,0.75,0.334,0.75,0.749c0,0.411-0.336,0.749-0.75,0.749c-0.412,0-0.749-0.338-0.749-0.749
			C17.248,11.37,17.585,11.036,17.997,11.036z M18.206,18.526c-0.412,0-0.749-0.337-0.749-0.748c0-0.415,0.337-0.749,0.749-0.749
			c0.414,0,0.75,0.334,0.75,0.749C18.956,18.189,18.62,18.526,18.206,18.526z M19.513,15.53c-0.413,0-0.75-0.337-0.75-0.749
			c0-0.415,0.337-0.749,0.75-0.749c0.414,0,0.749,0.334,0.749,0.749C20.262,15.193,19.927,15.53,19.513,15.53z M20.245,11.785
			c0-0.415,0.336-0.749,0.749-0.749c0.414,0,0.749,0.334,0.749,0.749c0,0.411-0.335,0.749-0.749,0.749
			C20.581,12.534,20.245,12.196,20.245,11.785z M21.557,18.526c-0.413,0-0.748-0.337-0.748-0.748c0-0.415,0.335-0.749,0.748-0.749
			c0.414,0,0.749,0.334,0.749,0.749C22.306,18.189,21.971,18.526,21.557,18.526z M22.626,15.53c-0.412,0-0.75-0.337-0.75-0.749
			c0-0.415,0.338-0.749,0.75-0.749c0.416,0,0.748,0.334,0.748,0.749C23.374,15.193,23.042,15.53,22.626,15.53z M23.243,11.785
			c0-0.415,0.335-0.749,0.746-0.749c0.416,0,0.75,0.334,0.75,0.749c0,0.411-0.334,0.749-0.75,0.749
			C23.578,12.534,23.243,12.196,23.243,11.785z M24.906,18.526c-0.411,0-0.747-0.337-0.747-0.748c0-0.415,0.336-0.749,0.747-0.749
			c0.415,0,0.749,0.334,0.749,0.749C25.655,18.189,25.321,18.526,24.906,18.526z M25.738,15.53c-0.413,0-0.749-0.337-0.749-0.749
			c0-0.415,0.336-0.749,0.749-0.749s0.749,0.334,0.749,0.749C26.487,15.193,26.151,15.53,25.738,15.53z M26.986,12.534
			c-0.413,0-0.749-0.338-0.749-0.749c0-0.415,0.336-0.749,0.749-0.749c0.414,0,0.749,0.334,0.749,0.749
			C27.735,12.196,27.4,12.534,26.986,12.534z"/>
	</g>
</g>
</svg>
