<?xml version="1.0" encoding="utf-8"?>
<!-- Generator: Adobe Illustrator 16.0.0, SVG Export Plug-In . SVG Version: 6.00 Build 0)  -->
<!DOCTYPE svg PUBLIC "-//W3C//DTD SVG 1.1//EN" "http://www.w3.org/Graphics/SVG/1.1/DTD/svg11.dtd">
<svg version="1.1" xmlns="http://www.w3.org/2000/svg" xmlns:xlink="http://www.w3.org/1999/xlink" x="0px" y="0px" width="32px"
	 height="32px" viewBox="0 0 32 32" enable-background="new 0 0 32 32" xml:space="preserve">
<g id="Layer_1">
</g>
<g id="Layer_2">
	<g>
		<path fill-rule="evenodd" clip-rule="evenodd" fill="#F6F6F6" d="M21.974,18.979c0-1.007,0-1.916,0-2.903
			c-4.149-0.312-8.05,0.141-11.421,2.806c-0.038-0.014-0.076-0.031-0.114-0.047c0.21-0.727,0.365-1.474,0.641-2.176
			c1.091-2.787,3.233-4.461,5.952-5.492c1.494-0.567,3.051-0.839,4.638-0.962c0.072-0.005,0.145-0.02,0.27-0.035
			c0-0.916,0-1.829,0-2.874c2.571,1.991,5.043,3.906,7.562,5.856C26.983,15.102,24.519,17.01,21.974,18.979z"/>
		<path fill-rule="evenodd" clip-rule="evenodd" fill="#F6F6F6" d="M24.014,20.078c0,0.152,0,4.051,0,4.051
			c0,0.564-0.457,1.025-1.021,1.025H7.427c-0.563,0-1.021-0.461-1.021-1.025V11.84c0-0.564,0.458-1.024,1.021-1.024h6.953
			c0,0,0.111-0.002,0.32-0.146c0,0,0.899-0.61,1.114-0.751c0.279-0.181,0.412-0.33,0.397-0.449c-0.015-0.12-0.211-0.205-0.609-0.205
			c-0.16,0-9.86,0-9.86,0C5.057,9.265,4.5,9.82,4.5,10.509v14.95c0,0.688,0.557,1.246,1.242,1.246h18.936
			c0.687,0,1.241-0.559,1.241-1.246V19.16c0,0,0.004-0.268-0.102-0.354c-0.112-0.092-0.335,0.078-0.335,0.078
			s-1.122,0.742-1.298,0.861C24.01,19.869,24.014,19.926,24.014,20.078z"/>
	</g>
</g>
</svg>
