<?xml version="1.0" encoding="utf-8"?>
<!-- Generator: Adobe Illustrator 16.0.0, SVG Export Plug-In . SVG Version: 6.00 Build 0)  -->
<!DOCTYPE svg PUBLIC "-//W3C//DTD SVG 1.1//EN" "http://www.w3.org/Graphics/SVG/1.1/DTD/svg11.dtd">
<svg version="1.1" xmlns="http://www.w3.org/2000/svg" xmlns:xlink="http://www.w3.org/1999/xlink" x="0px" y="0px" width="32px"
	 height="32px" viewBox="0 0 32 32" enable-background="new 0 0 32 32" xml:space="preserve">
<g id="Layer_1">
</g>
<g id="Layer_2">
	<path fill="#F6F6F6" d="M23.911,25.603l0.002-0.004c0,0-2.544-4.942-2.545-4.944c-0.201-0.392-0.678-0.537-1.066-0.342
		l-2.064,1.168c-0.886,0.453-1.559-0.42-2.782-2.304c-0.809-1.247-1.686-2.855-2.345-4.564c-0.462-1.196-0.82-2.413,0.108-2.887
		c0,0,2.284-1.166,2.286-1.168l0.001-0.002c0.412-0.213,0.535-0.693,0.344-1.069l0.002-0.004c0,0-2.616-5.085-2.618-5.087
		c-0.201-0.392-0.679-0.537-1.065-0.342L9.876,5.227c-1.007,0.664-3.97,4.411,0.601,13.582c4.813,9.665,9.954,9.587,11.019,9.016
		c0,0,2.072-1.148,2.07-1.15h0.004C23.981,26.463,24.103,25.979,23.911,25.603z"/>
</g>
</svg>
