<?xml version="1.0" encoding="utf-8"?>
<!-- Generator: Adobe Illustrator 16.0.0, SVG Export Plug-In . SVG Version: 6.00 Build 0)  -->
<!DOCTYPE svg PUBLIC "-//W3C//DTD SVG 1.1//EN" "http://www.w3.org/Graphics/SVG/1.1/DTD/svg11.dtd">
<svg version="1.1" xmlns="http://www.w3.org/2000/svg" xmlns:xlink="http://www.w3.org/1999/xlink" x="0px" y="0px" width="32px"
	 height="32px" viewBox="0 0 32 32" enable-background="new 0 0 32 32" xml:space="preserve">
<g id="Layer_1">
</g>
<g id="Layer_2">
	<path fill="#F6F6F6" d="M18.668,16.849v1.654c0.302,0.133,0.646,0.283,1.032,0.453c0.387,0.17,0.784,0.344,1.195,0.523
		c0.41,0.18,0.826,0.357,1.245,0.539c0.419,0.178,0.819,0.346,1.196,0.502c0.376,0.154,0.716,0.293,1.018,0.416
		c0.303,0.125,0.547,0.217,0.735,0.283c0.396,0.143,0.718,0.355,0.964,0.645c0.244,0.287,0.438,0.58,0.579,0.885
		c0.17,0.348,0.292,0.717,0.367,1.104v1.797H5v-1.797c0.086-0.387,0.212-0.756,0.382-1.104c0.141-0.305,0.335-0.598,0.58-0.885
		c0.246-0.289,0.561-0.502,0.947-0.645c0.198-0.066,0.458-0.162,0.778-0.291c0.322-0.127,0.68-0.273,1.075-0.438
		c0.396-0.164,0.814-0.342,1.254-0.531c0.438-0.189,0.874-0.377,1.307-0.564c0.435-0.189,0.845-0.367,1.231-0.537
		c0.388-0.172,0.727-0.322,1.02-0.453V16.79c-0.019-0.074-0.05-0.189-0.092-0.346c-0.043-0.156-0.087-0.312-0.135-0.475
		c-0.056-0.188-0.123-0.391-0.198-0.607c-0.273-0.51-0.49-1.086-0.65-1.732s-0.241-1.332-0.241-2.059c0-0.953,0.102-1.76,0.304-2.42
		c0.204-0.66,0.479-1.197,0.829-1.611c0.349-0.416,0.756-0.719,1.224-0.906c0.467-0.189,0.969-0.283,1.506-0.283
		c0.529,0,1.025,0.09,1.493,0.275c0.467,0.184,0.877,0.48,1.23,0.891s0.632,0.947,0.835,1.613c0.204,0.664,0.305,1.48,0.305,2.441
		c0,0.707-0.078,1.379-0.233,2.016c-0.156,0.637-0.371,1.209-0.644,1.721c-0.075,0.234-0.147,0.455-0.212,0.662
		c-0.057,0.182-0.109,0.354-0.156,0.516C18.69,16.653,18.668,16.774,18.668,16.849"/>
</g>
</svg>
