<?xml version="1.0" encoding="utf-8"?>
<!-- Generator: Adobe Illustrator 16.0.0, SVG Export Plug-In . SVG Version: 6.00 Build 0)  -->
<!DOCTYPE svg PUBLIC "-//W3C//DTD SVG 1.1//EN" "http://www.w3.org/Graphics/SVG/1.1/DTD/svg11.dtd">
<svg version="1.1" xmlns="http://www.w3.org/2000/svg" xmlns:xlink="http://www.w3.org/1999/xlink" x="0px" y="0px" width="32px"
	 height="32px" viewBox="0 0 32 32" enable-background="new 0 0 32 32" xml:space="preserve">
<g id="Layer_1">
</g>
<g id="Layer_2">
	<g>
		<path fill="#F6F6F6" d="M24.132,25.546c-0.389,0.389-1.025,0.389-1.414,0L6.454,9.282c-0.389-0.389-0.389-1.025,0-1.414
			l1.414-1.414c0.389-0.389,1.025-0.389,1.414,0l16.264,16.264c0.389,0.389,0.389,1.025,0,1.414L24.132,25.546z"/>
	</g>
	<g>
		<path fill="#F6F6F6" d="M25.546,7.868c0.389,0.389,0.389,1.025,0,1.414L9.282,25.546c-0.389,0.389-1.025,0.389-1.414,0
			l-1.414-1.414c-0.389-0.389-0.389-1.025,0-1.414L22.718,6.454c0.389-0.389,1.025-0.389,1.414,0L25.546,7.868z"/>
	</g>
</g>
</svg>
