<?xml version="1.0" encoding="utf-8"?>
<!-- Generator: Adobe Illustrator 16.0.0, SVG Export Plug-In . SVG Version: 6.00 Build 0)  -->
<!DOCTYPE svg PUBLIC "-//W3C//DTD SVG 1.1//EN" "http://www.w3.org/Graphics/SVG/1.1/DTD/svg11.dtd">
<svg version="1.1" xmlns="http://www.w3.org/2000/svg" xmlns:xlink="http://www.w3.org/1999/xlink" x="0px" y="0px" width="32px"
	 height="32px" viewBox="0 0 32 32" enable-background="new 0 0 32 32" xml:space="preserve">
<g id="Layer_1">
</g>
<g id="Layer_2">
	<path fill="#F6F6F6" d="M27.416,24.587l-5.742-5.744c-0.066-0.066-0.141-0.117-0.211-0.172C22.432,17.183,23,15.409,23,13.499
		c0-5.247-4.252-9.5-9.5-9.5c-5.246,0-9.5,4.253-9.5,9.5c0,5.248,4.254,9.5,9.5,9.5c1.908,0,3.684-0.568,5.174-1.538
		c0.055,0.072,0.105,0.144,0.17,0.21l5.742,5.744c0.393,0.391,0.904,0.586,1.414,0.586c0.512,0,1.023-0.195,1.416-0.585
		C28.195,26.634,28.195,25.368,27.416,24.587 M13.5,19.999c-3.584,0-6.5-2.916-6.5-6.5c0-3.583,2.916-6.5,6.5-6.5
		c3.582,0,6.5,2.917,6.5,6.5C20,17.083,17.082,19.999,13.5,19.999"/>
</g>
</svg>
