<?xml version="1.0" encoding="utf-8"?>
<!-- Generator: Adobe Illustrator 18.1.1, SVG Export Plug-In . SVG Version: 6.00 Build 0)  -->
<svg version="1.1" id="Layer_1" xmlns="http://www.w3.org/2000/svg" xmlns:xlink="http://www.w3.org/1999/xlink" x="0px" y="0px"
	 width="24px" height="24px" viewBox="-372.4 286.3 24 24" enable-background="new -372.4 286.3 24 24" xml:space="preserve">
<g>
	<path fill="#FFFFFF" d="M-365.9,289c-3.6,0-6.5,0.6-6.5,1.4c0,0.8,2.9,1.4,6.5,1.4c3.6,0,6.5-0.6,6.5-1.4
		C-359.5,289.7-362.4,289-365.9,289 M-365.9,290.9c-1,0-1.8-0.3-1.8-0.6c0-0.3,0.8-0.6,1.8-0.6s1.8,0.3,1.8,0.6
		C-364.1,290.6-364.9,290.9-365.9,290.9"/>
	<path fill="#FFFFFF" d="M-349.3,292.7h-10.2v-0.9c0,0-0.9,0.9-6.5,0.9s-6.5-0.9-6.5-0.9v14.8c0,0,0.9,0.9,6.5,0.9s6.5-0.9,6.5-0.9
		v-1.8h10.2c0.5,0,0.9-0.4,0.9-0.9v-10.2C-348.4,293.2-348.8,292.7-349.3,292.7 M-351.2,293.7h0.9v0.9h-0.9V293.7z M-353,293.7h0.9
		v0.9h-0.9V293.7z M-354.9,293.7h0.9v0.9h-0.9V293.7z M-356.7,293.7h0.9v0.9h-0.9V293.7z M-357.6,303.8h-0.9v-0.9h0.9V303.8z
		 M-357.6,302h-1.8v-6.5h1.8V302z M-357.6,294.6h-0.9v-0.9h0.9V294.6z M-355.8,303.8h-0.9v-0.9h0.9V303.8z M-353.9,303.8h-0.9v-0.9
		h0.9V303.8z M-352.1,303.8h-0.9v-0.9h0.9V303.8z M-350.3,303.8h-0.9v-0.9h0.9V303.8z M-349.3,302h-7.4v-6.5h7.4V302z"/>
</g>
</svg>
