<?xml version="1.0" encoding="utf-8"?>
<!-- Generator: Adobe Illustrator 18.1.1, SVG Export Plug-In . SVG Version: 6.00 Build 0)  -->
<svg version="1.1" id="Layer_1" xmlns="http://www.w3.org/2000/svg" xmlns:xlink="http://www.w3.org/1999/xlink" x="0px" y="0px"
	 width="24px" height="24px" viewBox="-338.5 286.3 24 24" enable-background="new -338.5 286.3 24 24" xml:space="preserve">
<g>
	<path fill="#FFFFFF" d="M-317.7,289h-17.6c-1.4,0-2.6,1.2-2.6,2.6v10.6c0,1.5,1.2,2.6,2.6,2.6h17.6c1.5,0,2.6-1.2,2.6-2.6v-10.6
		C-315.1,290.2-316.3,289-317.7,289 M-316.9,303.1h-19.3v-12.3h19.3V303.1z"/>
	<path fill="#FFFFFF" d="M-314.7,306.7c-0.2,0.4-0.8,0.8-1.3,0.8h-21.1c-0.5,0-1.1-0.4-1.3-0.8l-0.1-0.2c-0.2-0.4,0-0.8,0.5-0.8
		h22.9c0.5,0,0.7,0.4,0.5,0.8L-314.7,306.7z"/>
</g>
</svg>
