<?xml version="1.0" encoding="utf-8"?>
<!-- Generator: Adobe Illustrator 18.1.1, SVG Export Plug-In . SVG Version: 6.00 Build 0)  -->
<svg version="1.1" id="Layer_1" xmlns="http://www.w3.org/2000/svg" xmlns:xlink="http://www.w3.org/1999/xlink" x="0px" y="0px"
	 width="24px" height="24px" viewBox="-408 286.3 24 24" enable-background="new -408 286.3 24 24" xml:space="preserve">
<g>
	<path fill="#FFFFFF" d="M-404.9,299.8c0,0.2-0.2,0.4-0.4,0.4h-1c-0.2,0-0.4-0.2-0.4-0.4v-1.1c0-0.2,0.2-0.4,0.4-0.4h1
		c0.2,0,0.4,0.2,0.4,0.4V299.8z"/>
	<path fill="#FFFFFF" d="M-406.2,300l-1.1,6.9c0,0,0.3-0.2,0.6-0.2c0.1,0,0,0.5,0.1,0.5c0.3,0.1,0.4-0.4,0.7-0.4
		c0.2,0,0.4,0.5,0.6,0.4c0.2,0,0.3-0.3,0.3-0.4c0.1-0.2,0.6,0.1,0.6,0.1l-1.2-6.9H-406.2z"/>
	<path fill="#FFFFFF" d="M-406.1,298.5c-0.4-3.4,1.4-4.3,1.5-4.4l0.2,0.3c0,0-1.6,0.9-1.3,4L-406.1,298.5z"/>
	<path fill="#FFFFFF" d="M-395.8,299.2c-0.1,0-0.1,0-0.2,0l-6.7-2.6l-0.8,6.8c0,0,3-1.9,3.9-1.9c0.9,0,3.5,2.3,3.5,2.3s2.8-2,3.9-2
		c1.2,0,3.3,1.6,3.3,1.6l-0.3-6.6l-6.5,2.5C-395.7,299.2-395.7,299.2-395.8,299.2"/>
	<polygon fill="#FFFFFF" points="-395.8,289.3 -408,293.3 -400.5,296.4 -395.8,298 -390.9,296.4 -384,293.3 	"/>
</g>
</svg>
