<?xml version="1.0" encoding="utf-8"?>
<!-- Generator: Adobe Illustrator 18.1.1, SVG Export Plug-In . SVG Version: 6.00 Build 0)  -->
<svg version="1.1" id="Layer_1" xmlns="http://www.w3.org/2000/svg" xmlns:xlink="http://www.w3.org/1999/xlink" x="0px" y="0px"
	 width="24px" height="24px" viewBox="-372.4 286.3 24 24" enable-background="new -372.4 286.3 24 24" xml:space="preserve">
<g>
	<path fill="#FFFFFF" d="M-354.8,295.2h-16.9v1.9c0,0,0,0,0,0v9.4c0,2.1,1.7,3.8,3.8,3.8h9.4c2.1,0,3.8-1.7,3.8-3.8
		c3.1,0,5.6-2.5,5.6-5.6S-351.6,295.2-354.8,295.2 M-354.8,303.7V298c1.6,0,2.8,1.3,2.8,2.8S-353.2,303.7-354.8,303.7"/>
	<path fill="#FFFFFF" d="M-362.3,293.8c-1.1,0-2.4-0.4-2.4-1.4c0-0.9,1.2-1.1,2.7-1.4c0.5-0.1,1.4-0.3,1.8-0.4
		c-0.6-0.2-1.8-0.4-2.7-0.5c-2.5-0.4-3.7-0.6-3.7-1.4c0-1.7,6.6-2.4,7.1-2.4c0.3,0,0.5,0.2,0.5,0.5s-0.2,0.5-0.5,0.5
		c-1.4,0-5.1,0.8-6,1.4c0.5,0.2,1.8,0.4,2.8,0.5c2.5,0.4,3.7,0.6,3.7,1.4c0,0.9-1.2,1.1-2.7,1.4c-0.6,0.1-1.7,0.3-2,0.5
		c0.1,0.2,0.9,0.4,1.4,0.4c0.3,0,0.5,0.2,0.5,0.5S-362,293.8-362.3,293.8"/>
</g>
</svg>
