<?xml version="1.0" encoding="utf-8"?>
<!-- Generator: Adobe Illustrator 18.1.1, SVG Export Plug-In . SVG Version: 6.00 Build 0)  -->
<svg version="1.1" id="Layer_1" xmlns="http://www.w3.org/2000/svg" xmlns:xlink="http://www.w3.org/1999/xlink" x="0px" y="0px"
	 width="24px" height="24px" viewBox="-266.4 286.3 24 24" enable-background="new -266.4 286.3 24 24" xml:space="preserve">
<g>
	<rect x="-261.8" y="297.4" fill="#FFFFFF" width="1.8" height="3.7"/>
	<path fill="#FFFFFF" d="M-248.9,291.8v-0.1v-0.8c0-1.8-1.4-2.8-2.8-2.8h-5.5c-1.8,0-2.8,1.4-2.8,2.8v0.9h-6.5v6.5h3.7v-1.8h3.7v1.8
		h9.2v-1.8h3.7v1.8h3.7v-6.5H-248.9z M-258.1,290.9c0,0,0-0.9,0.9-0.9h5.5c0,0,0.9,0,0.9,0.9v0.9h-7.4V290.9z"/>
	<polygon fill="#FFFFFF" points="-246.1,302 -249.8,302 -249.8,299.2 -259,299.2 -259,302 -262.7,302 -262.7,299.2 -265.5,299.2 
		-265.5,308.4 -243.3,308.4 -243.3,299.2 -246.1,299.2 	"/>
	<rect x="-248.9" y="297.4" fill="#FFFFFF" width="1.8" height="3.7"/>
</g>
</svg>
