<?xml version="1.0" encoding="utf-8"?>
<!-- Generator: Adobe Illustrator 18.1.1, SVG Export Plug-In . SVG Version: 6.00 Build 0)  -->
<svg version="1.1" id="Layer_1" xmlns="http://www.w3.org/2000/svg" xmlns:xlink="http://www.w3.org/1999/xlink" x="0px" y="0px"
	 width="24px" height="24px" viewBox="-372.4 286.3 24 24" enable-background="new -372.4 286.3 24 24" xml:space="preserve">
<path fill="#FFFFFF" d="M-357.5,296.9h-0.2c-0.7,0-1.3,0.2-1.8,0.4v-1.5c3.9-1-0.9-9.1-0.9-9.1s-4.9,8.1-0.9,9.1v3.5
	c-0.5-0.3-1.1-0.4-1.8-0.4h-0.2c-1.2-3-9.1,0.9-9.1,0.9s7.8,3.9,9.1,0.9h0.2c1.7,0,1.8,1.4,1.8,1.8v0.7v2.1v3.5
	c0,0.5,0.4,0.9,0.9,0.9c0.5,0,0.9-0.4,0.9-0.9v-3.5v-2.1v-0.7v-2.1c0-0.3,0.1-1.8,1.8-1.8h0.2c1.2,3,9.1-0.9,9.1-0.9
	S-356.2,293.9-357.5,296.9"/>
</svg>
