<?xml version="1.0" encoding="utf-8"?>
<!-- Generator: Adobe Illustrator 18.1.1, SVG Export Plug-In . SVG Version: 6.00 Build 0)  -->
<svg version="1.1" id="Layer_1" xmlns="http://www.w3.org/2000/svg" xmlns:xlink="http://www.w3.org/1999/xlink" x="0px" y="0px"
	 width="24px" height="24px" viewBox="-372.4 286.3 24 24" enable-background="new -372.4 286.3 24 24" xml:space="preserve">
<g opacity="0.4" enable-background="new    ">
	<g>
		<defs>
			<rect id="SVGID_1_" x="-367.9" y="289.3" width="15" height="10"/>
		</defs>
		<clipPath id="SVGID_2_">
			<use xlink:href="#SVGID_1_"  overflow="visible"/>
		</clipPath>
		<g clip-path="url(#SVGID_2_)">
			<defs>
				<rect id="SVGID_3_" x="-367.9" y="289.3" width="14" height="10"/>
			</defs>
			<clipPath id="SVGID_4_">
				<use xlink:href="#SVGID_3_"  overflow="visible"/>
			</clipPath>
			<path clip-path="url(#SVGID_4_)" fill="#FFFFFF" d="M-367.9,289.3h14c0,0-1.1,10-7,10C-366.9,299.3-367.9,289.3-367.9,289.3"/>
		</g>
	</g>
</g>
<path fill="#FFFFFF" d="M-359.9,308.3v-9.1c3.4-0.6,6-4.5,6-8.2h0v-4.7h-14v4.7c0,3.7,2.6,7.6,6,8.2v9.1c-3.4,0.1-6,1-6,2h14
	C-353.9,309.3-356.5,308.4-359.9,308.3 M-366.9,291v-3.7h12l0,3.7c0,3.4-2.6,7.3-6,7.3h0C-364.3,298.3-366.9,294.3-366.9,291"/>
</svg>
